<svg width="47" height="32" viewBox="0 0 47 32" fill="none" xmlns="http://www.w3.org/2000/svg">
<g clip-path="url(#clip0_10095_18983)">
<mask id="mask0_10095_18983" style="mask-type:luminance" maskUnits="userSpaceOnUse" x="12" y="5" width="23" height="22">
<path d="M34.4889 5.77783H12V26.2223H34.4889V5.77783Z" fill="white"/>
</mask>
<g mask="url(#mask0_10095_18983)">
<path d="M34.4245 6.42177V5.63977H25.2071V6.42177C27.0031 6.42177 27.5112 6.65943 27.5112 8.32515V13.5109H19.227V8.32515C19.227 6.65892 19.7351 6.42126 21.5312 6.42126V5.63977H12.3143V6.42177C14.1103 6.42177 14.6184 6.65995 14.6184 8.32566V23.5542C14.6184 25.2194 14.1098 25.4576 12.3143 25.4576V26.2396H21.5317V25.4576C19.7356 25.4576 19.227 25.2194 19.227 23.5542V19.1305C19.227 18.5412 19.4039 17.9626 19.7463 17.4832C20.1563 16.9065 20.6982 16.4361 21.3269 16.1115C21.9556 15.7868 22.6528 15.6171 23.3604 15.6166C24.9004 15.6166 26.2595 16.4063 27.0578 17.6028C27.3583 18.0536 27.5117 18.5877 27.5117 19.1305V23.5542C27.5117 25.2194 27.0031 25.4576 25.2076 25.4576V26.2396H34.4245V25.4576C32.6284 25.4576 32.1199 25.2194 32.1199 23.5542V8.32515C32.1199 6.65892 32.6284 6.42177 34.4245 6.42177Z" fill="white"/>
</g>
</g>
<defs>
<clipPath id="clip0_10095_18983">
<rect width="23" height="20.4444" fill="white" transform="translate(12 5.77783)"/>
</clipPath>
</defs>
</svg>
